<svg width="128" height="133" viewBox="0 0 128 133" fill="none" xmlns="http://www.w3.org/2000/svg">
<circle cx="64" cy="67" r="61.5" fill="#007ACC" stroke="#00509E" stroke-width="5"/>
<path d="M44.912 61.552H59.248V70H33.968V25.072H44.912V61.552Z" fill="#F4F4F4"/>
<path d="M73.72 62.072V88.952C73.72 91.64 74.3813 93.7093 75.704 95.16C77.0267 96.6107 78.968 97.336 81.528 97.336C84.088 97.336 86.0507 96.6107 87.416 95.16C88.7813 93.7093 89.464 91.64 89.464 88.952V62.072H100.408V88.888C100.408 92.8987 99.5547 96.2907 97.848 99.064C96.1413 101.837 93.8373 103.928 90.936 105.336C88.0773 106.744 84.8773 107.448 81.336 107.448C77.7947 107.448 74.616 106.765 71.8 105.4C69.0267 103.992 66.8293 101.901 65.208 99.128C63.5867 96.312 62.776 92.8987 62.776 88.888V62.072H73.72Z" fill="#F4F4F4"/>
</svg>
